<?xml version="1.0" encoding="UTF-8" standalone="no"?>
<!DOCTYPE svg PUBLIC "-//W3C//DTD SVG 1.1//EN" "http://www.w3.org/Graphics/SVG/1.1/DTD/svg11.dtd">
<!-- Created with Vectornator (http://vectornator.io/) -->
<svg height="100%" stroke-miterlimit="10" style="fill-rule:nonzero;clip-rule:evenodd;stroke-linecap:round;stroke-linejoin:round;" version="1.1" viewBox="0 0 178.4 156.1" width="100%" xml:space="preserve" xmlns="http://www.w3.org/2000/svg" xmlns:vectornator="http://vectornator.io" xmlns:xlink="http://www.w3.org/1999/xlink">
<defs>
<linearGradient gradientTransform="matrix(0.317645 0 0 0.317645 41.1419 -9.26969)" gradientUnits="userSpaceOnUse" id="LinearGradient" x1="45.4222" x2="270.268" y1="315.246" y2="315.246">
<stop offset="0.0401365" stop-color="#4c4fa1"/>
<stop offset="0.877512" stop-color="#0692ee"/>
</linearGradient>
<linearGradient gradientTransform="matrix(0.317645 0 0 0.317645 41.1419 -9.26969)" gradientUnits="userSpaceOnUse" id="LinearGradient_2" x1="45.4222" x2="270.268" y1="249.451" y2="249.451">
<stop offset="0" stop-color="#0071bc"/>
<stop offset="1" stop-color="#223266"/>
</linearGradient>
</defs>
<g id="Mask-Group-2" vectornator:layerName="Mask Group 2">
<path d="M131.473 148.385L60.0155 24.9832L60.0155 141.8C60.0155 145.439 60.2018 148.931 60.2546 148.711L131.473 148.385Z" fill="#fddf19" fill-rule="nonzero" opacity="0.75" stroke="none"/>
<path d="M121.645 2.441L50.1878 125.843L50.1878 9.02767C50.1878 5.3892 50.4255 1.51841 50.4797 0.881989L121.645 2.441Z" fill="#ffd700" fill-rule="nonzero" opacity="1" stroke="none"/>
<path d="M126.991 153.517L55.57 28.031L55.57 146.821C55.57 150.521 55.6911 153.603 55.9184 153.702L126.991 153.517Z" fill="url(#LinearGradient)" fill-rule="nonzero" opacity="1" stroke="none"/>
<path d="M126.991 7.22409L55.57 132.71L55.57 13.922C55.57 10.2221 55.668 7.49437 55.7824 7.43935L126.991 7.22409Z" fill="url(#LinearGradient_2)" fill-rule="nonzero" opacity="1" stroke="none"/>
</g>
</svg>
