<?xml version="1.0" encoding="utf-8"?>
<!-- Generator: Adobe Illustrator 27.5.0, SVG Export Plug-In . SVG Version: 6.00 Build 0)  -->
<svg version="1.1" id="Capa_1" xmlns="http://www.w3.org/2000/svg" xmlns:xlink="http://www.w3.org/1999/xlink" x="0px" y="0px"
	 viewBox="0 0 420.032 286.624" style="enable-background:new 0 0 420.032 286.624;" xml:space="preserve">
<g id="Paquete_de_vectores:_motivo_de_puntos_15">
</g>
<g id="Paquete_de_vectores:_motivo_de_puntos_15_1_">
</g>
<g id="Paquete_de_vectores:_motivo_de_puntos_03">
</g>
<g>
	<g>
		<rect x="0.026" style="fill:#FFFFFF;" width="59.999" height="224.667"/>
		<rect x="60.025" style="fill:#FFEF00;" width="59.999" height="224.667"/>
		<rect x="120.024" style="fill:#00B2E4;" width="59.998" height="224.667"/>
		<rect x="180.023" style="fill:#91BC18;" width="59.999" height="224.667"/>
		<rect x="240.021" style="fill:#DE307A;" width="59.999" height="224.667"/>
		<rect x="300.021" style="fill:#E0040B;" width="59.999" height="224.667"/>
		<rect x="360.02" style="fill:#001881;" width="59.999" height="224.667"/>
	</g>
	<g>
		<rect x="60.025" y="224.667" width="59.999" height="17.998"/>
		<rect x="120.024" y="224.667" style="fill:#DE307A;" width="59.998" height="17.998"/>
		<rect x="180.023" y="224.667" width="59.999" height="17.998"/>
		<rect x="240.021" y="224.667" style="fill:#69BDBA;" width="59.999" height="17.998"/>
		<rect x="300.021" y="224.667" width="59.999" height="17.998"/>
		<rect x="360.033" y="224.667" style="fill:#C3C5CA;" width="59.999" height="17.998"/>
	</g>
	<g>
		<rect x="70.028" y="242.625" style="fill:#EDEEF0;" width="69.998" height="43.999"/>
		<rect y="224.667" style="fill:#2E3E91;" width="59.999" height="17.998"/>
		<rect y="242.625" style="fill:#162362;" width="69.998" height="43.999"/>
		<rect x="140.026" y="242.625" style="fill:#162362;" width="69.998" height="43.999"/>
		<rect x="210.025" y="242.625" width="69.998" height="43.999"/>
		<rect x="280.022" y="242.625" width="69.998" height="43.999"/>
		<rect x="350.021" y="242.625" width="69.998" height="43.999"/>
	</g>
</g>
<g>
	<rect x="66.349" y="94.904" width="299.333" height="89.334"/>
	<g>
		<path style="fill:#FFFFFF;" d="M88.727,125.016h8.707l11.362,16.695v-16.695h8.79v30.177h-8.79l-11.301-16.569v16.569h-8.769
			V125.016z"/>
		<path style="fill:#FFFFFF;" d="M122.609,140.124c0-4.926,1.372-8.762,4.117-11.506c2.745-2.745,6.566-4.117,11.466-4.117
			c5.022,0,8.892,1.349,11.609,4.045c2.717,2.696,4.076,6.474,4.076,11.332c0,3.526-0.594,6.419-1.78,8.676
			c-1.188,2.258-2.902,4.014-5.146,5.27c-2.244,1.256-5.04,1.884-8.388,1.884c-3.403,0-6.22-0.542-8.45-1.626
			c-2.23-1.084-4.038-2.8-5.424-5.146C123.301,146.588,122.609,143.651,122.609,140.124z M131.934,140.166
			c0,3.046,0.566,5.235,1.698,6.566c1.132,1.331,2.672,1.996,4.621,1.996c2.003,0,3.554-0.651,4.652-1.955
			c1.098-1.304,1.646-3.644,1.646-7.02c0-2.841-0.573-4.916-1.719-6.227c-1.146-1.311-2.7-1.966-4.663-1.966
			c-1.88,0-3.39,0.666-4.528,1.996C132.503,134.89,131.934,137.092,131.934,140.166z"/>
		<path style="fill:#FFFFFF;" d="M171.332,145.209l8.872-0.556c0.192,1.44,0.583,2.539,1.173,3.293
			c0.96,1.222,2.333,1.832,4.117,1.832c1.331,0,2.357-0.312,3.078-0.937c0.72-0.624,1.081-1.348,1.081-2.172
			c0-0.782-0.343-1.482-1.029-2.1c-0.686-0.617-2.278-1.2-4.775-1.749c-4.09-0.92-7.006-2.141-8.749-3.664
			c-1.757-1.523-2.635-3.465-2.635-5.825c0-1.551,0.449-3.016,1.348-4.396c0.899-1.379,2.251-2.463,4.055-3.252
			c1.804-0.789,4.278-1.184,7.421-1.184c3.856,0,6.796,0.717,8.82,2.151c2.024,1.434,3.228,3.715,3.613,6.844l-8.789,0.515
			c-0.234-1.358-0.724-2.347-1.472-2.964c-0.748-0.618-1.78-0.927-3.098-0.927c-1.084,0-1.901,0.23-2.45,0.689
			c-0.549,0.46-0.823,1.02-0.823,1.678c0,0.48,0.226,0.913,0.679,1.297c0.439,0.398,1.482,0.769,3.129,1.112
			c4.076,0.878,6.995,1.767,8.759,2.665c1.763,0.899,3.046,2.015,3.849,3.345c0.803,1.332,1.204,2.82,1.204,4.468
			c0,1.935-0.535,3.719-1.605,5.352c-1.07,1.633-2.566,2.871-4.487,3.716c-1.921,0.844-4.344,1.266-7.267,1.266
			c-5.132,0-8.686-0.988-10.663-2.964C172.712,150.767,171.593,148.256,171.332,145.209z"/>
		<path style="fill:#FFFFFF;" d="M203.773,125.016h9.346v30.177h-9.346V125.016z"/>
		<path style="fill:#FFFFFF;" d="M234.979,144.262v-6.278h14.409v12.865c-2.758,1.881-5.197,3.16-7.317,3.84
			c-2.121,0.679-4.635,1.019-7.544,1.019c-3.581,0-6.501-0.61-8.759-1.832c-2.257-1.222-4.007-3.039-5.249-5.455
			c-1.242-2.415-1.863-5.188-1.863-8.316c0-3.293,0.679-6.157,2.038-8.594c1.359-2.436,3.348-4.285,5.97-5.548
			c2.044-0.974,4.796-1.461,8.254-1.461c3.335,0,5.829,0.302,7.482,0.905c1.653,0.604,3.026,1.541,4.117,2.811
			c1.091,1.269,1.911,2.878,2.46,4.826l-8.995,1.607c-0.371-1.14-0.999-2.011-1.884-2.614c-0.885-0.604-2.014-0.906-3.386-0.906
			c-2.045,0-3.674,0.71-4.889,2.131c-1.214,1.42-1.822,3.667-1.822,6.741c0,3.267,0.614,5.599,1.842,6.999
			c1.228,1.399,2.94,2.1,5.136,2.1c1.043,0,2.038-0.151,2.985-0.453c0.947-0.302,2.031-0.816,3.252-1.544v-2.841H234.979z"/>
		<path style="fill:#FFFFFF;" d="M254.987,125.016h8.708l11.362,16.695v-16.695h8.79v30.177h-8.79l-11.301-16.569v16.569h-8.769
			V125.016z"/>
		<path style="fill:#FFFFFF;" d="M308.184,150.211h-10.586l-1.471,4.981h-9.521l11.342-30.177h10.171l11.339,30.177h-9.765
			L308.184,150.211z M306.25,143.686l-3.331-10.848l-3.296,10.848H306.25z"/>
		<path style="fill:#FFFFFF;" d="M322.422,125.016h9.325v22.746H346.3v7.431h-23.878V125.016z"/>
	</g>
</g>
</svg>
