<svg id="Layer_1" data-name="Layer 1" xmlns="http://www.w3.org/2000/svg" xmlns:xlink="http://www.w3.org/1999/xlink" viewBox="0 0 235.55 229.35"><defs><style>.cls-1{fill:none;}.cls-2{clip-path:url(#clip-path);}.cls-3{fill:#2e84c6;}.cls-4{clip-path:url(#clip-path-2);}.cls-5{fill:#00b4ac;}.cls-6{clip-path:url(#clip-path-3);}.cls-7{clip-path:url(#clip-path-4);}.cls-8{clip-path:url(#clip-path-5);}.cls-9{fill:#00b3ab;}</style><clipPath id="clip-path" transform="translate(-159.68 -173.01)"><rect class="cls-1" x="245.54" y="339" width="33.98" height="50.08"/></clipPath><clipPath id="clip-path-2" transform="translate(-159.68 -173.01)"><rect class="cls-1" x="278.5" y="175.32" width="74.4" height="61.84" transform="translate(-10.2 16.53) rotate(-2.95)"/></clipPath><clipPath id="clip-path-3" transform="translate(-159.68 -173.01)"><rect class="cls-1" x="231.21" y="241.12" width="50.66" height="58.04"/></clipPath><clipPath id="clip-path-4" transform="translate(-159.68 -173.01)"><rect class="cls-1" x="231.41" y="242.12" width="50.66" height="58.04"/></clipPath><clipPath id="clip-path-5" transform="translate(-159.68 -173.01)"><rect class="cls-1" x="235.1" y="296.38" width="46.22" height="52.4" transform="translate(-11.28 9.36) rotate(-2.03)"/></clipPath></defs><title>logo</title><g class="cls-2"><path class="cls-3" d="M322.16,185.2c-5,10.6-9.78,20.83-14.57,31.06-1.58,3.38-3.41,7-8,5.17-5-2-3.33-6-1.63-9.54,5.37-11.37,10.93-22.66,15.95-34.18,2.14-4.91,4.88-5.72,9.47-3.61,38.72,17.86,62.79,47.29,70,88.47,10.81,61.53-28.75,119.48-90.88,134.34-8.63,2.07-17.73,2.32-26.63,3.24-4.51.47-6.72-1.71-6.68-6.25.08-10.46.05-20.93,0-31.39,0-3.61,1.07-6.36,5.29-6.25s5,3.08,5,6.58c-.06,8.77,0,17.53,0,26.24,40.07,4.25,88.89-33.71,101.33-78.39C394.79,260.63,369.4,205.82,322.16,185.2Z" transform="translate(-159.68 -173.01)"/></g><path class="cls-3" d="M188.49,229.83c10.14,5.61,20,11.09,29.94,16.58,1.57.87,3.73,1.48,4.49,2.79,1,1.73,1.84,4.6,1,5.92s-4.6,2.34-6,1.62Q198,246.32,178.64,235.13c-3.94-2.27-2.41-5.46-.26-8.41,16-21.95,37.54-36.73,64.76-43.56,8.5-2.14,17.48-2.66,26.27-3.65,3.57-.39,8-.71,8.23,4.28s-4,4.68-7.76,4.87c-32,1.63-58.4,13.74-78.64,37.45C190.38,227.13,189.65,228.26,188.49,229.83Z" transform="translate(-159.68 -173.01)"/><path class="cls-3" d="M193.61,230.18l27.31,16.37c1.43.86,3.39,1.46,4.08,2.75.91,1.7,1.69,4.54.89,5.84s-4.19,2.31-5.45,1.6q-18.1-10.29-35.81-21.33c-3.6-2.24-2.21-5.38-.24-8.3,14.6-21.67,34.24-36.25,59.06-43,7.75-2.11,15.94-2.63,24-3.6,3.25-.39,7.3-.71,7.5,4.23s-3.67,4.61-7.08,4.8c-29.15,1.61-53.26,13.56-71.71,37C195.33,227.52,194.67,228.63,193.61,230.18Z" transform="translate(-159.68 -173.01)"/><g class="cls-4"><path class="cls-3" d="M317.14,200.42c-4.14,9.66-8.14,19-12.12,28.31-1.31,3.08-2.85,6.4-7.17,5-4.78-1.57-3.37-5.13-2-8.4,4.47-10.37,9.12-20.68,13.27-31.16,1.76-4.46,4.27-5.32,8.63-3.66,36.83,14,60.56,39,69.18,75.3C399.85,320,365.72,373.4,308.63,389.6c-7.93,2.25-16.37,2.91-24.61,4.15-4.17.64-6.32-1.2-6.5-5.23-.41-9.31-.91-18.61-1.43-27.91-.18-3.21.7-5.71,4.64-5.81s4.79,2.5,4.93,5.61c.34,7.79.78,15.58,1.18,23.33,37.46,1.85,81.11-34.24,90.63-74.56C388.13,264,362,216.48,317.14,200.42Z" transform="translate(-159.68 -173.01)"/></g><path class="cls-3" d="M317.41,198c-4.63,10.08-9.1,19.79-13.56,29.52-1.47,3.21-3.18,6.67-7.42,4.91-4.69-1.94-3.09-5.65-1.51-9.06,5-10.81,10.18-21.55,14.85-32.49,2-4.67,4.55-5.44,8.81-3.43,36.06,17,58.47,44.94,65.21,84.09C393.86,330,357,385.09,299.18,399.22c-8,2-16.51,2.2-24.8,3.08-4.2.44-6.25-1.63-6.22-5.95.07-9.94,0-19.89,0-29.83,0-3.43,1-6,4.93-5.94s4.66,2.93,4.63,6.25c-.06,8.33,0,16.66,0,24.94,37.32,4,82.77-32,94.35-74.51C385,269.69,361.4,217.58,317.41,198Z" transform="translate(-159.68 -173.01)"/><path class="cls-5" d="M317,199c-4.57,9.83-9,19.31-13.38,28.79-1.45,3.13-3.13,6.5-7.31,4.79-4.63-1.89-3.06-5.51-1.5-8.84,4.93-10.54,10-21,14.65-31.69,2-4.55,4.49-5.3,8.69-3.34,35.56,16.55,57.67,43.83,64.31,82,9.93,57-26.4,110.75-83.45,124.53-7.93,1.92-16.28,2.16-24.45,3-4.15.43-6.17-1.59-6.14-5.8.07-9.7.05-19.4,0-29.1,0-3.34,1-5.9,4.86-5.79s4.6,2.85,4.57,6.1c-.06,8.12,0,16.25,0,24.32,36.8,3.94,81.64-31.25,93.06-72.67C383.64,269,360.33,218.14,317,199Z" transform="translate(-159.68 -173.01)"/><path class="cls-3" d="M162.37,285.21c.56-4.68,1.21-11.36,2.21-18,.53-3.51.84-8.11,6.27-7.14s3.87,5.49,3.18,8.88c-4.22,20.86-1.48,40.91,7.58,60.06,10.92,23.06,28.46,39.68,52.33,49.84.89.38,1.8.75,2.7,1.12,3.13,1.25,6,2.89,4.2,6.78s-5.06,3.35-8,1.82c-8.3-4.29-17.09-8-24.55-13.43C178.32,353.34,163.43,323.73,162.37,285.21Z" transform="translate(-159.68 -173.01)"/><path class="cls-3" d="M159.68,285.27c.56-4.69,1.21-11.37,2.21-18,.53-3.51.84-8.11,6.26-7.14s3.88,5.49,3.19,8.88c-4.22,20.86-1.48,40.91,7.58,60.06,10.92,23.06,28.46,39.68,52.32,49.84L234,380c3.13,1.25,6,2.89,4.2,6.78s-5.07,3.36-8,1.82c-8.3-4.29-17.09-8-24.55-13.43C175.63,353.39,160.73,323.78,159.68,285.27Z" transform="translate(-159.68 -173.01)"/><path class="cls-5" d="M161.93,286.45c.56-4.73,1.21-11.47,2.21-18.15.53-3.55.84-8.18,6.27-7.2s3.87,5.54,3.18,8.95c-4.22,21.05-1.48,41.29,7.58,60.62C192.09,354,209.63,370.72,233.5,381c.89.39,1.8.76,2.7,1.13,3.13,1.26,6,2.92,4.2,6.84s-5.06,3.39-8,1.84c-8.3-4.33-17.09-8.07-24.55-13.55C177.88,355.2,163,325.32,161.93,286.45Z" transform="translate(-159.68 -173.01)"/><path class="cls-5" d="M191.1,230.48c9.84,5.69,19.46,11.23,29.07,16.8,1.52.88,3.61,1.49,4.35,2.82,1,1.75,1.79,4.66.94,6s-4.46,2.37-5.8,1.64q-19.28-10.56-38.12-21.88c-3.83-2.3-2.35-5.53-.26-8.52,15.55-22.24,36.45-37.2,62.87-44.12,8.25-2.17,17-2.7,25.51-3.69,3.46-.41,7.77-.73,8,4.33s-3.9,4.74-7.53,4.93c-31,1.65-56.7,13.92-76.34,37.94C192.93,227.75,192.22,228.89,191.1,230.48Z" transform="translate(-159.68 -173.01)"/><path class="cls-3" d="M279,280.63h-3.2c-8.21,0-16.42,0-24.63,0-2.33,0-3.4-.73-3.38-3.26.08-9.14-.77-7.82,7.62-7.89,6.53-.06,13.06,0,19.59,0,.95,0,1.9-.1,3.37-.18a14.06,14.06,0,0,0-11.61-7.23c-5-.44-10-.5-15.09-.64-3.4-.1-3.87-.5-3.91-4,0-2.07,0-4.16,0-6.23-.07-2.29,1-3.14,3.23-3.13q27.45.06,54.9,0c2.37,0,3.47.85,3.4,3.29-.26,9.51.68,7.63-7.41,7.81-3.42.08-6.85,0-10.34,0,1.29,3.23,2.35,6.16,3.67,9a3,3,0,0,0,2.29,1.26c3,.16,5.93.09,8.9.06,1.9,0,2.93.69,3,2.77.11,10,.67,8.25-7.73,8.37-5.59.08-5.51,0-7.33,5.22-3.26,9.29-10.18,14.53-19.37,17.14-2.16.61-4.36,1.07-7,1.72,4.12,4.69,8,9,11.74,13.38q9.5,11.21,18.81,22.57a4.31,4.31,0,0,1,.94,3.31c-.18.62-1.92,1.08-3,1.12a97.37,97.37,0,0,1-10.67,0,6.34,6.34,0,0,1-4-1.85c-10.8-12.23-21.44-24.61-32.24-36.84-1.74-2-1.77-4-1.76-6.33,0-8-.69-7.3,7.28-7.47a65.42,65.42,0,0,0,13.75-1.64C274.52,289.52,278.12,285.57,279,280.63Z" transform="translate(-159.68 -173.01)"/><g class="cls-6"><path class="cls-3" d="M275.33,281.52h-3.2c-8.21,0-16.42,0-24.63,0-2.33,0-3.39-.74-3.37-3.32.08-9.32-.78-8,7.62-8,6.52-.06,13.05,0,19.58,0,.95,0,1.91-.1,3.38-.19a14.05,14.05,0,0,0-11.61-7.36c-5-.45-10.06-.51-15.09-.66-3.4-.1-3.87-.5-3.91-4.06,0-2.12.05-4.24,0-6.36-.07-2.33,1-3.19,3.24-3.19q27.45.07,54.89,0c2.37,0,3.47.87,3.41,3.36-.26,9.69.68,7.77-7.41,8-3.42.08-6.85,0-10.35,0,1.3,3.29,2.36,6.28,3.68,9.15a3,3,0,0,0,2.28,1.28c3,.16,5.93.09,8.9.06,1.91,0,2.94.7,3,2.82.11,10.21.68,8.4-7.72,8.53-5.59.08-5.52,0-7.33,5.32-3.27,9.46-10.19,14.8-19.37,17.46-2.16.63-4.36,1.1-7,1.76,4.12,4.77,8,9.14,11.74,13.63q9.5,11.42,18.8,23a4.41,4.41,0,0,1,.94,3.37c-.17.63-1.91,1.1-3,1.14a95.12,95.12,0,0,1-10.68,0,6.38,6.38,0,0,1-4-1.89c-10.81-12.46-21.45-25.07-32.25-37.54-1.73-2-1.76-4.12-1.75-6.45,0-8.16-.7-7.44,7.27-7.61A64.26,64.26,0,0,0,265.12,292C270.91,290.58,274.5,286.55,275.33,281.52Z" transform="translate(-159.68 -173.01)"/></g><g class="cls-7"><path class="cls-3" d="M275.54,282.52h-3.21c-8.21,0-16.42,0-24.63,0-2.32,0-3.39-.74-3.37-3.32.08-9.32-.77-8,7.62-8,6.53-.06,13.06,0,19.58,0,1,0,1.91-.1,3.38-.19a14,14,0,0,0-11.61-7.36c-5-.45-10.05-.51-15.09-.66-3.4-.1-3.87-.5-3.91-4.06,0-2.12,0-4.24,0-6.36-.07-2.33,1-3.19,3.24-3.19q27.45.07,54.9,0c2.37,0,3.47.87,3.4,3.36-.26,9.69.68,7.77-7.41,8-3.42.08-6.85,0-10.35,0,1.3,3.29,2.36,6.28,3.68,9.15A3.06,3.06,0,0,0,294,271.1c3,.16,5.94.09,8.9.06,1.91,0,2.94.7,3,2.82.11,10.21.67,8.4-7.73,8.53-5.59.08-5.51,0-7.33,5.32-3.27,9.46-10.18,14.8-19.37,17.46-2.16.63-4.36,1.1-7,1.76,4.12,4.77,8,9.14,11.74,13.63q9.49,11.42,18.81,23a4.45,4.45,0,0,1,.94,3.37c-.18.63-1.92,1.1-3,1.14a94.94,94.94,0,0,1-10.67,0,6.38,6.38,0,0,1-4-1.89c-10.81-12.46-21.44-25.07-32.25-37.54-1.73-2-1.76-4.12-1.75-6.45,0-8.16-.7-7.44,7.27-7.61A64.26,64.26,0,0,0,265.32,293C271.11,291.58,274.7,287.55,275.54,282.52Z" transform="translate(-159.68 -173.01)"/></g><g class="cls-8"><path class="cls-3" d="M274.47,280.4l-3.23.22c-8.31.57-16.61,1.1-24.91,1.73-2.35.18-3.48-.5-3.64-3-.56-9.13-1.33-7.75,7.15-8.41,6.6-.51,13.2-.91,19.8-1.37,1-.07,1.92-.23,3.41-.41a14.32,14.32,0,0,0-12.25-6.41c-5.1-.1-10.2.2-15.31.4-3.44.14-4-.23-4.23-3.71-.17-2.07-.24-4.15-.45-6.22-.24-2.28.76-3.19,3.05-3.35q27.75-1.83,55.51-3.8c2.4-.17,3.57.61,3.67,3,.41,9.51,1.23,7.56-6.94,8.31-3.46.31-6.92.48-10.46.73,1.53,3.13,2.81,6,4.34,8.7a3.16,3.16,0,0,0,2.4,1.1c3-.06,6-.32,9-.56,1.92-.15,3,.48,3.19,2.56.81,10,1.26,8.18-7.23,8.88-5.65.47-5.57.42-7.05,5.72C287.65,294,281,299.73,271.92,303c-2.14.77-4.33,1.38-7,2.21,4.5,4.39,8.73,8.39,12.81,12.53q10.39,10.52,20.61,21.21a4.3,4.3,0,0,1,1.18,3.24c-.14.63-1.86,1.21-2.93,1.32a97.75,97.75,0,0,1-10.8.71,6.53,6.53,0,0,1-4.16-1.57c-11.78-11.45-23.41-23.06-35.19-34.52-1.89-1.84-2.07-3.91-2.22-6.19-.54-8-1.22-7.24,6.83-8a67.89,67.89,0,0,0,13.8-2.59C270.62,289.57,274,285.38,274.47,280.4Z" transform="translate(-159.68 -173.01)"/></g><path class="cls-9" d="M276.8,280.63h-3.2c-8.21,0-16.42,0-24.63,0-2.33,0-3.4-.73-3.38-3.26.08-9.14-.77-7.82,7.62-7.89,6.53-.06,13.06,0,19.59,0,.95,0,1.9-.1,3.37-.18a14.06,14.06,0,0,0-11.61-7.23c-5-.44-10.05-.5-15.09-.64-3.4-.1-3.87-.5-3.91-4,0-2.07.05-4.16,0-6.23-.07-2.29,1-3.14,3.23-3.13q27.45.06,54.9,0c2.37,0,3.47.85,3.4,3.29-.26,9.51.68,7.63-7.41,7.81-3.42.08-6.85,0-10.34,0,1.29,3.23,2.35,6.16,3.67,9a3,3,0,0,0,2.29,1.26c3,.16,5.93.09,8.9.06,1.9,0,2.93.69,3,2.77.11,10,.67,8.25-7.73,8.37-5.59.08-5.51,0-7.33,5.22-3.26,9.29-10.18,14.53-19.37,17.14-2.16.61-4.36,1.07-7,1.72,4.12,4.69,8,9,11.74,13.38q9.49,11.21,18.81,22.57a4.31,4.31,0,0,1,.94,3.31c-.18.62-1.92,1.08-3,1.12a97.37,97.37,0,0,1-10.67,0,6.34,6.34,0,0,1-4-1.85c-10.8-12.23-21.44-24.61-32.24-36.84-1.74-2-1.77-4-1.76-6.33,0-8-.69-7.3,7.28-7.47a65.42,65.42,0,0,0,13.75-1.64C272.37,289.52,276,285.57,276.8,280.63Z" transform="translate(-159.68 -173.01)"/></svg>